<?xml version="1.0" encoding="UTF-8"?>
<!DOCTYPE svg PUBLIC "-//W3C//DTD SVG 1.1//EN" "http://www.w3.org/Graphics/SVG/1.1/DTD/svg11.dtd">
<svg xmlns="http://www.w3.org/2000/svg" version="1.1" width="512px" height="512px" style="shape-rendering:geometricPrecision; text-rendering:geometricPrecision; image-rendering:optimizeQuality; fill-rule:evenodd; clip-rule:evenodd" xmlns:xlink="http://www.w3.org/1999/xlink">
<g><path style="opacity:0.021" fill="#43443f" d="M -0.5,-0.5 C 0.166667,-0.5 0.833333,-0.5 1.5,-0.5C 1.16667,0.5 0.5,1.16667 -0.5,1.5C -0.5,0.833333 -0.5,0.166667 -0.5,-0.5 Z"/></g>
<g><path style="opacity:0.022" fill="#43443f" d="M 16.5,-0.5 C 18.1667,-0.5 19.8333,-0.5 21.5,-0.5C 14.5,7.16667 7.16667,14.5 -0.5,21.5C -0.5,19.8333 -0.5,18.1667 -0.5,16.5C 5.5,11.1667 11.1667,5.5 16.5,-0.5 Z"/></g>
<g><path style="opacity:0.022" fill="#43443f" d="M 36.5,-0.5 C 38.1667,-0.5 39.8333,-0.5 41.5,-0.5C 27.8333,13.8333 13.8333,27.8333 -0.5,41.5C -0.5,39.8333 -0.5,38.1667 -0.5,36.5C 12.1667,24.5 24.5,12.1667 36.5,-0.5 Z"/></g>
<g><path style="opacity:0.022" fill="#43443f" d="M 56.5,-0.5 C 58.1667,-0.5 59.8333,-0.5 61.5,-0.5C 41.1667,20.5 20.5,41.1667 -0.5,61.5C -0.5,59.8333 -0.5,58.1667 -0.5,56.5C 18.8333,37.8333 37.8333,18.8333 56.5,-0.5 Z"/></g>
<g><path style="opacity:0.022" fill="#43443f" d="M 76.5,-0.5 C 78.1667,-0.5 79.8333,-0.5 81.5,-0.5C 54.5,27.1667 27.1667,54.5 -0.5,81.5C -0.5,79.8333 -0.5,78.1667 -0.5,76.5C 25.5,51.1667 51.1667,25.5 76.5,-0.5 Z"/></g>
<g><path style="opacity:0.022" fill="#43443f" d="M 96.5,-0.5 C 98.1667,-0.5 99.8333,-0.5 101.5,-0.5C 67.8333,33.8333 33.8333,67.8333 -0.5,101.5C -0.5,99.8333 -0.5,98.1667 -0.5,96.5C 32.1667,64.5 64.5,32.1667 96.5,-0.5 Z"/></g>
<g><path style="opacity:0.022" fill="#43443f" d="M 116.5,-0.5 C 118.167,-0.5 119.833,-0.5 121.5,-0.5C 81.1667,40.5 40.5,81.1667 -0.5,121.5C -0.5,119.833 -0.5,118.167 -0.5,116.5C 38.8333,77.8333 77.8333,38.8333 116.5,-0.5 Z"/></g>
<g><path style="opacity:0.022" fill="#43443f" d="M 136.5,-0.5 C 138.167,-0.5 139.833,-0.5 141.5,-0.5C 94.5,47.1667 47.1667,94.5 -0.5,141.5C -0.5,139.833 -0.5,138.167 -0.5,136.5C 45.5,91.1667 91.1667,45.5 136.5,-0.5 Z"/></g>
<g><path style="opacity:0.022" fill="#43443f" d="M 156.5,-0.5 C 158.167,-0.5 159.833,-0.5 161.5,-0.5C 107.833,53.8333 53.8333,107.833 -0.5,161.5C -0.5,159.833 -0.5,158.167 -0.5,156.5C 52.1667,104.5 104.5,52.1667 156.5,-0.5 Z"/></g>
<g><path style="opacity:0.022" fill="#43443f" d="M 176.5,-0.5 C 178.167,-0.5 179.833,-0.5 181.5,-0.5C 121.167,60.5 60.5,121.167 -0.5,181.5C -0.5,179.833 -0.5,178.167 -0.5,176.5C 58.8333,117.833 117.833,58.8333 176.5,-0.5 Z"/></g>
<g><path style="opacity:0.022" fill="#32322f" d="M 196.5,-0.5 C 198.167,-0.5 199.833,-0.5 201.5,-0.5C 166.368,35.132 131.035,70.632 95.5,106C 100.489,106.499 105.489,106.666 110.5,106.5C 112.167,106.5 113.833,106.5 115.5,106.5C 120.5,106.5 125.5,106.5 130.5,106.5C 132.167,106.5 133.833,106.5 135.5,106.5C 140.5,106.5 145.5,106.5 150.5,106.5C 152.167,106.5 153.833,106.5 155.5,106.5C 160.5,106.5 165.5,106.5 170.5,106.5C 172.167,106.5 173.833,106.5 175.5,106.5C 180.5,106.5 185.5,106.5 190.5,106.5C 192.167,106.5 193.833,106.5 195.5,106.5C 200.5,106.5 205.5,106.5 210.5,106.5C 212.167,106.5 213.833,106.5 215.5,106.5C 220.5,106.5 225.5,106.5 230.5,106.5C 232.167,106.5 233.833,106.5 235.5,106.5C 240.5,106.5 245.5,106.5 250.5,106.5C 252.167,106.5 253.833,106.5 255.5,106.5C 260.5,106.5 265.5,106.5 270.5,106.5C 272.167,106.5 273.833,106.5 275.5,106.5C 280.5,106.5 285.5,106.5 290.5,106.5C 292.167,106.5 293.833,106.5 295.5,106.5C 300.5,106.5 305.5,106.5 310.5,106.5C 312.167,106.5 313.833,106.5 315.5,106.5C 320.5,106.5 325.5,106.5 330.5,106.5C 332.167,106.5 333.833,106.5 335.5,106.5C 340.5,106.5 345.5,106.5 350.5,106.5C 352.167,106.5 353.833,106.5 355.5,106.5C 360.5,106.5 365.5,106.5 370.5,106.5C 372.167,106.5 373.833,106.5 375.5,106.5C 380.5,106.5 385.5,106.5 390.5,106.5C 392.167,106.5 393.833,106.5 395.5,106.5C 400.5,106.5 405.5,106.5 410.5,106.5C 412.167,106.5 413.833,106.5 415.5,106.5C 416.791,106.263 417.791,106.596 418.5,107.5C 309.499,107.333 200.499,107.5 91.5,108C 90.255,108.791 88.9217,109.291 87.5,109.5C 123.833,72.8333 160.167,36.1667 196.5,-0.5 Z"/></g>
<g><path style="opacity:0.022" fill="#43443f" d="M 216.5,-0.5 C 218.167,-0.5 219.833,-0.5 221.5,-0.5C 186.167,35.1667 150.833,70.8333 115.5,106.5C 113.833,106.5 112.167,106.5 110.5,106.5C 145.833,70.8333 181.167,35.1667 216.5,-0.5 Z"/></g>
<g><path style="opacity:0.022" fill="#43443f" d="M 236.5,-0.5 C 238.167,-0.5 239.833,-0.5 241.5,-0.5C 206.167,35.1667 170.833,70.8333 135.5,106.5C 133.833,106.5 132.167,106.5 130.5,106.5C 165.833,70.8333 201.167,35.1667 236.5,-0.5 Z"/></g>
<g><path style="opacity:0.022" fill="#43443f" d="M 256.5,-0.5 C 258.167,-0.5 259.833,-0.5 261.5,-0.5C 226.167,35.1667 190.833,70.8333 155.5,106.5C 153.833,106.5 152.167,106.5 150.5,106.5C 185.833,70.8333 221.167,35.1667 256.5,-0.5 Z"/></g>
<g><path style="opacity:0.022" fill="#43443f" d="M 276.5,-0.5 C 278.167,-0.5 279.833,-0.5 281.5,-0.5C 246.167,35.1667 210.833,70.8333 175.5,106.5C 173.833,106.5 172.167,106.5 170.5,106.5C 205.833,70.8333 241.167,35.1667 276.5,-0.5 Z"/></g>
<g><path style="opacity:0.022" fill="#43443f" d="M 296.5,-0.5 C 298.167,-0.5 299.833,-0.5 301.5,-0.5C 266.167,35.1667 230.833,70.8333 195.5,106.5C 193.833,106.5 192.167,106.5 190.5,106.5C 225.833,70.8333 261.167,35.1667 296.5,-0.5 Z"/></g>
<g><path style="opacity:0.022" fill="#43443f" d="M 316.5,-0.5 C 318.167,-0.5 319.833,-0.5 321.5,-0.5C 286.167,35.1667 250.833,70.8333 215.5,106.5C 213.833,106.5 212.167,106.5 210.5,106.5C 245.833,70.8333 281.167,35.1667 316.5,-0.5 Z"/></g>
<g><path style="opacity:0.022" fill="#43443f" d="M 336.5,-0.5 C 338.167,-0.5 339.833,-0.5 341.5,-0.5C 306.167,35.1667 270.833,70.8333 235.5,106.5C 233.833,106.5 232.167,106.5 230.5,106.5C 265.833,70.8333 301.167,35.1667 336.5,-0.5 Z"/></g>
<g><path style="opacity:0.022" fill="#43443f" d="M 356.5,-0.5 C 358.167,-0.5 359.833,-0.5 361.5,-0.5C 326.167,35.1667 290.833,70.8333 255.5,106.5C 253.833,106.5 252.167,106.5 250.5,106.5C 285.833,70.8333 321.167,35.1667 356.5,-0.5 Z"/></g>
<g><path style="opacity:0.022" fill="#43443f" d="M 376.5,-0.5 C 378.167,-0.5 379.833,-0.5 381.5,-0.5C 346.167,35.1667 310.833,70.8333 275.5,106.5C 273.833,106.5 272.167,106.5 270.5,106.5C 305.833,70.8333 341.167,35.1667 376.5,-0.5 Z"/></g>
<g><path style="opacity:0.022" fill="#43443f" d="M 396.5,-0.5 C 398.167,-0.5 399.833,-0.5 401.5,-0.5C 366.167,35.1667 330.833,70.8333 295.5,106.5C 293.833,106.5 292.167,106.5 290.5,106.5C 325.833,70.8333 361.167,35.1667 396.5,-0.5 Z"/></g>
<g><path style="opacity:0.022" fill="#43443f" d="M 416.5,-0.5 C 418.167,-0.5 419.833,-0.5 421.5,-0.5C 386.167,35.1667 350.833,70.8333 315.5,106.5C 313.833,106.5 312.167,106.5 310.5,106.5C 345.833,70.8333 381.167,35.1667 416.5,-0.5 Z"/></g>
<g><path style="opacity:0.022" fill="#43443f" d="M 436.5,-0.5 C 438.167,-0.5 439.833,-0.5 441.5,-0.5C 406.167,35.1667 370.833,70.8333 335.5,106.5C 333.833,106.5 332.167,106.5 330.5,106.5C 365.833,70.8333 401.167,35.1667 436.5,-0.5 Z"/></g>
<g><path style="opacity:0.022" fill="#43443f" d="M 456.5,-0.5 C 458.167,-0.5 459.833,-0.5 461.5,-0.5C 426.167,35.1667 390.833,70.8333 355.5,106.5C 353.833,106.5 352.167,106.5 350.5,106.5C 385.833,70.8333 421.167,35.1667 456.5,-0.5 Z"/></g>
<g><path style="opacity:0.022" fill="#43443f" d="M 476.5,-0.5 C 478.167,-0.5 479.833,-0.5 481.5,-0.5C 446.167,35.1667 410.833,70.8333 375.5,106.5C 373.833,106.5 372.167,106.5 370.5,106.5C 405.833,70.8333 441.167,35.1667 476.5,-0.5 Z"/></g>
<g><path style="opacity:0.022" fill="#43443f" d="M 496.5,-0.5 C 498.167,-0.5 499.833,-0.5 501.5,-0.5C 466.167,35.1667 430.833,70.8333 395.5,106.5C 393.833,106.5 392.167,106.5 390.5,106.5C 425.833,70.8333 461.167,35.1667 496.5,-0.5 Z"/></g>
<g><path style="opacity:0.022" fill="#43443f" d="M 511.5,5.5 C 511.5,7.16667 511.5,8.83333 511.5,10.5C 479.167,42.1667 447.167,74.1667 415.5,106.5C 413.833,106.5 412.167,106.5 410.5,106.5C 443.833,72.5 477.5,38.8333 511.5,5.5 Z"/></g>
<g><path style="opacity:0.022" fill="#43433f" d="M 511.5,25.5 C 511.5,27.1667 511.5,28.8333 511.5,30.5C 483.167,58.1667 455.167,86.1667 427.5,114.5C 426.512,113.205 425.512,111.872 424.5,110.5C 425.239,110.631 425.906,110.464 426.5,110C 454.701,81.6318 483.035,53.4651 511.5,25.5 Z"/></g>
<g><path style="opacity:0.022" fill="#40403c" d="M 511.5,45.5 C 511.5,47.1667 511.5,48.8333 511.5,50.5C 484.535,76.9651 457.701,103.632 431,130.5C 430.826,135.351 430.326,140.018 429.5,144.5C 429.5,136.5 429.5,128.5 429.5,120.5C 430.302,121.952 430.802,123.618 431,125.5C 457.701,98.6318 484.535,71.9651 511.5,45.5 Z"/></g>
<g><path style="opacity:0.022" fill="#343431" d="M 511.5,65.5 C 511.5,67.1667 511.5,68.8333 511.5,70.5C 458.368,123.132 405.368,175.965 352.5,229C 357.489,229.499 362.489,229.666 367.5,229.5C 369.167,229.5 370.833,229.5 372.5,229.5C 377.5,229.5 382.5,229.5 387.5,229.5C 389.167,229.5 390.833,229.5 392.5,229.5C 397.5,229.5 402.5,229.5 407.5,229.5C 409.167,229.5 410.833,229.5 412.5,229.5C 414.735,229.205 416.735,229.539 418.5,230.5C 309.833,230.5 201.167,230.5 92.5,230.5C 92.5,230.167 92.5,229.833 92.5,229.5C 97.5,229.5 102.5,229.5 107.5,229.5C 109.167,229.5 110.833,229.5 112.5,229.5C 117.5,229.5 122.5,229.5 127.5,229.5C 129.167,229.5 130.833,229.5 132.5,229.5C 137.5,229.5 142.5,229.5 147.5,229.5C 149.167,229.5 150.833,229.5 152.5,229.5C 157.5,229.5 162.5,229.5 167.5,229.5C 169.167,229.5 170.833,229.5 172.5,229.5C 177.5,229.5 182.5,229.5 187.5,229.5C 189.167,229.5 190.833,229.5 192.5,229.5C 197.5,229.5 202.5,229.5 207.5,229.5C 209.167,229.5 210.833,229.5 212.5,229.5C 217.5,229.5 222.5,229.5 227.5,229.5C 229.167,229.5 230.833,229.5 232.5,229.5C 237.5,229.5 242.5,229.5 247.5,229.5C 249.167,229.5 250.833,229.5 252.5,229.5C 257.5,229.5 262.5,229.5 267.5,229.5C 269.167,229.5 270.833,229.5 272.5,229.5C 277.5,229.5 282.5,229.5 287.5,229.5C 289.167,229.5 290.833,229.5 292.5,229.5C 297.5,229.5 302.5,229.5 307.5,229.5C 309.167,229.5 310.833,229.5 312.5,229.5C 317.5,229.5 322.5,229.5 327.5,229.5C 329.167,229.5 330.833,229.5 332.5,229.5C 337.511,229.666 342.511,229.499 347.5,229C 370.833,205.667 394.167,182.333 417.5,159C 416.906,158.536 416.239,158.369 415.5,158.5C 422.323,157.01 426.99,153.01 429.5,146.5C 456.833,119.5 484.167,92.5 511.5,65.5 Z"/></g>
<g><path style="opacity:0.022" fill="#43443f" d="M 511.5,85.5 C 511.5,87.1667 511.5,88.8333 511.5,90.5C 464.833,136.5 418.5,182.833 372.5,229.5C 370.833,229.5 369.167,229.5 367.5,229.5C 415.167,181.167 463.167,133.167 511.5,85.5 Z"/></g>
<g><path style="opacity:0.022" fill="#43443f" d="M 511.5,105.5 C 511.5,107.167 511.5,108.833 511.5,110.5C 471.5,149.833 431.833,189.5 392.5,229.5C 390.833,229.5 389.167,229.5 387.5,229.5C 428.5,187.833 469.833,146.5 511.5,105.5 Z"/></g>
<g><path style="opacity:1" fill="#3398fe" d="M 418.5,107.5 C 420.97,107.654 422.97,108.654 424.5,110.5C 425.512,111.872 426.512,113.205 427.5,114.5C 429.074,116.102 429.741,118.102 429.5,120.5C 429.5,128.5 429.5,136.5 429.5,144.5C 429.5,145.167 429.5,145.833 429.5,146.5C 426.99,153.01 422.323,157.01 415.5,158.5C 411.167,158.5 406.833,158.5 402.5,158.5C 400.833,158.5 399.167,158.5 397.5,158.5C 392.5,158.5 387.5,158.5 382.5,158.5C 380.833,158.5 379.167,158.5 377.5,158.5C 372.5,158.5 367.5,158.5 362.5,158.5C 360.833,158.5 359.167,158.5 357.5,158.5C 352.5,158.5 347.5,158.5 342.5,158.5C 340.833,158.5 339.167,158.5 337.5,158.5C 332.5,158.5 327.5,158.5 322.5,158.5C 320.833,158.5 319.167,158.5 317.5,158.5C 312.5,158.5 307.5,158.5 302.5,158.5C 300.833,158.5 299.167,158.5 297.5,158.5C 292.5,158.5 287.5,158.5 282.5,158.5C 280.833,158.5 279.167,158.5 277.5,158.5C 272.5,158.5 267.5,158.5 262.5,158.5C 260.833,158.5 259.167,158.5 257.5,158.5C 252.5,158.5 247.5,158.5 242.5,158.5C 240.833,158.5 239.167,158.5 237.5,158.5C 232.5,158.5 227.5,158.5 222.5,158.5C 220.833,158.5 219.167,158.5 217.5,158.5C 212.5,158.5 207.5,158.5 202.5,158.5C 200.833,158.5 199.167,158.5 197.5,158.5C 192.5,158.5 187.5,158.5 182.5,158.5C 180.833,158.5 179.167,158.5 177.5,158.5C 172.5,158.5 167.5,158.5 162.5,158.5C 160.833,158.5 159.167,158.5 157.5,158.5C 152.5,158.5 147.5,158.5 142.5,158.5C 140.833,158.5 139.167,158.5 137.5,158.5C 132.5,158.5 127.5,158.5 122.5,158.5C 120.833,158.5 119.167,158.5 117.5,158.5C 112.5,158.5 107.5,158.5 102.5,158.5C 100.833,158.5 99.1667,158.5 97.5,158.5C 93.6215,158.976 90.2882,157.976 87.5,155.5C 86.5,153.833 85.1667,152.5 83.5,151.5C 82.0605,149.412 81.3939,147.079 81.5,144.5C 81.3336,135.827 81.5002,127.16 82,118.5C 82.6552,116.372 83.4886,114.372 84.5,112.5C 85.1667,111.167 86.1667,110.167 87.5,109.5C 88.9217,109.291 90.255,108.791 91.5,108C 200.499,107.5 309.499,107.333 418.5,107.5 Z"/></g>
<g><path style="opacity:0.022" fill="#40403c" d="M 84.5,112.5 C 83.4886,114.372 82.6552,116.372 82,118.5C 81.5002,127.16 81.3336,135.827 81.5,144.5C 80.596,143.791 80.2627,142.791 80.5,141.5C 80.5,139.833 80.5,138.167 80.5,136.5C 80.6659,131.489 80.4993,126.489 80,121.5C 53.2987,148.368 26.4653,175.035 -0.5,201.5C -0.5,199.833 -0.5,198.167 -0.5,196.5C 27.8333,168.5 56.1667,140.5 84.5,112.5 Z"/></g>
<g><path style="opacity:0.022" fill="#43443f" d="M 511.5,125.5 C 511.5,127.167 511.5,128.833 511.5,130.5C 478.167,163.167 445.167,196.167 412.5,229.5C 410.833,229.5 409.167,229.5 407.5,229.5C 441.833,194.5 476.5,159.833 511.5,125.5 Z"/></g>
<g><path style="opacity:0.022" fill="#43443f" d="M 80.5,136.5 C 80.5,138.167 80.5,139.833 80.5,141.5C 53.5,168.167 26.5,194.833 -0.5,221.5C -0.5,219.833 -0.5,218.167 -0.5,216.5C 26.5,189.833 53.5,163.167 80.5,136.5 Z"/></g>
<g><path style="opacity:0.022" fill="#43433f" d="M 511.5,145.5 C 511.5,147.167 511.5,148.833 511.5,150.5C 482.833,178.5 454.5,206.833 426.5,235.5C 425.167,234.833 424.167,233.833 423.5,232.5C 452.833,203.5 482.167,174.5 511.5,145.5 Z"/></g>
<g><path style="opacity:0.022" fill="#43433f" d="M 83.5,151.5 C 85.1667,152.5 86.5,153.833 87.5,155.5C 86.7611,155.369 86.0944,155.536 85.5,156C 56.9653,184.702 28.2987,213.202 -0.5,241.5C -0.5,239.833 -0.5,238.167 -0.5,236.5C 28.217,208.784 56.217,180.45 83.5,151.5 Z"/></g>
<g><path style="opacity:0.022" fill="#43443f" d="M 97.5,158.5 C 99.1667,158.5 100.833,158.5 102.5,158.5C 68.5,193.167 34.1667,227.5 -0.5,261.5C -0.5,259.833 -0.5,258.167 -0.5,256.5C 32.5,224.167 65.1667,191.5 97.5,158.5 Z"/></g>
<g><path style="opacity:0.022" fill="#43443f" d="M 117.5,158.5 C 119.167,158.5 120.833,158.5 122.5,158.5C 81.8333,199.833 40.8333,240.833 -0.5,281.5C -0.5,279.833 -0.5,278.167 -0.5,276.5C 39.1667,237.5 78.5,198.167 117.5,158.5 Z"/></g>
<g><path style="opacity:0.022" fill="#43443f" d="M 137.5,158.5 C 139.167,158.5 140.833,158.5 142.5,158.5C 95.1667,206.5 47.5,254.167 -0.5,301.5C -0.5,299.833 -0.5,298.167 -0.5,296.5C 45.8333,250.833 91.8333,204.833 137.5,158.5 Z"/></g>
<g><path style="opacity:0.022" fill="#43433f" d="M 157.5,158.5 C 159.167,158.5 160.833,158.5 162.5,158.5C 139.167,182.167 115.833,205.833 92.5,229.5C 91.8333,229.5 91.5,229.833 91.5,230.5C 86.7483,232.917 83.4149,236.583 81.5,241.5C 81.5654,241.062 81.3988,240.728 81,240.5C 53.9653,267.702 26.7987,294.702 -0.5,321.5C -0.5,319.833 -0.5,318.167 -0.5,316.5C 52.5,264.167 105.167,211.5 157.5,158.5 Z"/></g>
<g><path style="opacity:0.022" fill="#43443f" d="M 177.5,158.5 C 179.167,158.5 180.833,158.5 182.5,158.5C 159.167,182.167 135.833,205.833 112.5,229.5C 110.833,229.5 109.167,229.5 107.5,229.5C 130.833,205.833 154.167,182.167 177.5,158.5 Z"/></g>
<g><path style="opacity:0.022" fill="#43443f" d="M 197.5,158.5 C 199.167,158.5 200.833,158.5 202.5,158.5C 179.167,182.167 155.833,205.833 132.5,229.5C 130.833,229.5 129.167,229.5 127.5,229.5C 150.833,205.833 174.167,182.167 197.5,158.5 Z"/></g>
<g><path style="opacity:0.022" fill="#43443f" d="M 217.5,158.5 C 219.167,158.5 220.833,158.5 222.5,158.5C 199.167,182.167 175.833,205.833 152.5,229.5C 150.833,229.5 149.167,229.5 147.5,229.5C 170.833,205.833 194.167,182.167 217.5,158.5 Z"/></g>
<g><path style="opacity:0.022" fill="#43443f" d="M 237.5,158.5 C 239.167,158.5 240.833,158.5 242.5,158.5C 219.167,182.167 195.833,205.833 172.5,229.5C 170.833,229.5 169.167,229.5 167.5,229.5C 190.833,205.833 214.167,182.167 237.5,158.5 Z"/></g>
<g><path style="opacity:0.022" fill="#43443f" d="M 257.5,158.5 C 259.167,158.5 260.833,158.5 262.5,158.5C 239.167,182.167 215.833,205.833 192.5,229.5C 190.833,229.5 189.167,229.5 187.5,229.5C 210.833,205.833 234.167,182.167 257.5,158.5 Z"/></g>
<g><path style="opacity:0.022" fill="#43443f" d="M 277.5,158.5 C 279.167,158.5 280.833,158.5 282.5,158.5C 259.167,182.167 235.833,205.833 212.5,229.5C 210.833,229.5 209.167,229.5 207.5,229.5C 230.833,205.833 254.167,182.167 277.5,158.5 Z"/></g>
<g><path style="opacity:0.022" fill="#43443f" d="M 297.5,158.5 C 299.167,158.5 300.833,158.5 302.5,158.5C 279.167,182.167 255.833,205.833 232.5,229.5C 230.833,229.5 229.167,229.5 227.5,229.5C 250.833,205.833 274.167,182.167 297.5,158.5 Z"/></g>
<g><path style="opacity:0.022" fill="#43443f" d="M 317.5,158.5 C 319.167,158.5 320.833,158.5 322.5,158.5C 299.167,182.167 275.833,205.833 252.5,229.5C 250.833,229.5 249.167,229.5 247.5,229.5C 270.833,205.833 294.167,182.167 317.5,158.5 Z"/></g>
<g><path style="opacity:0.022" fill="#43443f" d="M 337.5,158.5 C 339.167,158.5 340.833,158.5 342.5,158.5C 319.167,182.167 295.833,205.833 272.5,229.5C 270.833,229.5 269.167,229.5 267.5,229.5C 290.833,205.833 314.167,182.167 337.5,158.5 Z"/></g>
<g><path style="opacity:0.022" fill="#43443f" d="M 357.5,158.5 C 359.167,158.5 360.833,158.5 362.5,158.5C 339.167,182.167 315.833,205.833 292.5,229.5C 290.833,229.5 289.167,229.5 287.5,229.5C 310.833,205.833 334.167,182.167 357.5,158.5 Z"/></g>
<g><path style="opacity:0.022" fill="#43443f" d="M 377.5,158.5 C 379.167,158.5 380.833,158.5 382.5,158.5C 359.167,182.167 335.833,205.833 312.5,229.5C 310.833,229.5 309.167,229.5 307.5,229.5C 330.833,205.833 354.167,182.167 377.5,158.5 Z"/></g>
<g><path style="opacity:0.022" fill="#43443f" d="M 397.5,158.5 C 399.167,158.5 400.833,158.5 402.5,158.5C 379.167,182.167 355.833,205.833 332.5,229.5C 330.833,229.5 329.167,229.5 327.5,229.5C 350.833,205.833 374.167,182.167 397.5,158.5 Z"/></g>
<g><path style="opacity:0.022" fill="#43443f" d="M 511.5,165.5 C 511.5,167.167 511.5,168.833 511.5,170.5C 484.5,197.167 457.5,223.833 430.5,250.5C 430.5,248.833 430.5,247.167 430.5,245.5C 457.5,218.833 484.5,192.167 511.5,165.5 Z"/></g>
<g><path style="opacity:0.022" fill="#40403c" d="M 511.5,185.5 C 511.5,187.167 511.5,188.833 511.5,190.5C 483.833,217.833 456.167,245.167 428.5,272.5C 429.421,262.873 429.755,253.206 429.5,243.5C 430.338,243.842 430.672,244.508 430.5,245.5C 430.5,247.167 430.5,248.833 430.5,250.5C 430.334,255.511 430.501,260.511 431,265.5C 457.701,238.632 484.535,211.965 511.5,185.5 Z"/></g>
<g><path style="opacity:0.022" fill="#43443f" d="M 511.5,205.5 C 511.5,207.167 511.5,208.833 511.5,210.5C 463.833,257.5 416.5,304.833 369.5,352.5C 367.833,352.5 366.167,352.5 364.5,352.5C 413.167,303.167 462.167,254.167 511.5,205.5 Z"/></g>
<g><path style="opacity:0.022" fill="#43443f" d="M 511.5,225.5 C 511.5,227.167 511.5,228.833 511.5,230.5C 470.5,270.833 429.833,311.5 389.5,352.5C 387.833,352.5 386.167,352.5 384.5,352.5C 426.5,309.833 468.833,267.5 511.5,225.5 Z"/></g>
<g><path style="opacity:1" fill="#3398fe" d="M 91.5,230.5 C 91.8333,230.5 92.1667,230.5 92.5,230.5C 201.167,230.5 309.833,230.5 418.5,230.5C 420.553,230.402 422.22,231.069 423.5,232.5C 424.167,233.833 425.167,234.833 426.5,235.5C 428.585,237.684 429.585,240.351 429.5,243.5C 429.755,253.206 429.421,262.873 428.5,272.5C 427.145,275.855 424.811,278.189 421.5,279.5C 311.874,280.496 202.207,280.829 92.5,280.5C 89.3855,280.445 87.0522,279.112 85.5,276.5C 84.9744,274.77 83.9744,273.436 82.5,272.5C 81.6993,270.958 81.366,269.292 81.5,267.5C 81.5,259.5 81.5,251.5 81.5,243.5C 81.5,242.833 81.5,242.167 81.5,241.5C 83.4149,236.583 86.7483,232.917 91.5,230.5 Z"/></g>
<g><path style="opacity:0.022" fill="#43443f" d="M 511.5,245.5 C 511.5,247.167 511.5,248.833 511.5,250.5C 477.167,284.167 443.167,318.167 409.5,352.5C 407.833,352.5 406.167,352.5 404.5,352.5C 439.833,316.5 475.5,280.833 511.5,245.5 Z"/></g>
<g><path style="opacity:0.022" fill="#40403c" d="M 81.5,243.5 C 81.5,251.5 81.5,259.5 81.5,267.5C 80.6909,265.708 80.1909,263.708 80,261.5C 53.2987,288.368 26.4653,315.035 -0.5,341.5C -0.5,339.833 -0.5,338.167 -0.5,336.5C 26.4653,310.035 53.2987,283.368 80,256.5C 80.1753,251.981 80.6753,247.647 81.5,243.5 Z"/></g>
<g><path style="opacity:0.022" fill="#43433f" d="M 511.5,265.5 C 511.5,267.167 511.5,268.833 511.5,270.5C 482.116,298.883 453.45,327.883 425.5,357.5C 424.128,356.488 422.795,355.488 421.5,354.5C 451.5,324.833 481.5,295.167 511.5,265.5 Z"/></g>
<g><path style="opacity:0.022" fill="#43433f" d="M 82.5,272.5 C 83.9744,273.436 84.9744,274.77 85.5,276.5C 56.8333,304.833 28.1667,333.167 -0.5,361.5C -0.5,359.833 -0.5,358.167 -0.5,356.5C 27.8837,329.117 55.5503,301.117 82.5,272.5 Z"/></g>
<g><path style="opacity:0.022" fill="#2f2f2c" d="M 421.5,279.5 C 397.5,303.833 373.5,328.167 349.5,352.5C 347.833,352.5 346.167,352.5 344.5,352.5C 367.632,328.868 390.965,305.368 414.5,282C 409.511,281.501 404.511,281.334 399.5,281.5C 397.833,281.5 396.167,281.5 394.5,281.5C 389.5,281.5 384.5,281.5 379.5,281.5C 377.833,281.5 376.167,281.5 374.5,281.5C 369.5,281.5 364.5,281.5 359.5,281.5C 357.833,281.5 356.167,281.5 354.5,281.5C 349.5,281.5 344.5,281.5 339.5,281.5C 337.833,281.5 336.167,281.5 334.5,281.5C 329.5,281.5 324.5,281.5 319.5,281.5C 317.833,281.5 316.167,281.5 314.5,281.5C 309.5,281.5 304.5,281.5 299.5,281.5C 297.833,281.5 296.167,281.5 294.5,281.5C 289.5,281.5 284.5,281.5 279.5,281.5C 277.833,281.5 276.167,281.5 274.5,281.5C 269.5,281.5 264.5,281.5 259.5,281.5C 257.833,281.5 256.167,281.5 254.5,281.5C 249.5,281.5 244.5,281.5 239.5,281.5C 237.833,281.5 236.167,281.5 234.5,281.5C 229.5,281.5 224.5,281.5 219.5,281.5C 217.833,281.5 216.167,281.5 214.5,281.5C 209.5,281.5 204.5,281.5 199.5,281.5C 197.833,281.5 196.167,281.5 194.5,281.5C 189.5,281.5 184.5,281.5 179.5,281.5C 177.833,281.5 176.167,281.5 174.5,281.5C 169.5,281.5 164.5,281.5 159.5,281.5C 157.833,281.5 156.167,281.5 154.5,281.5C 149.5,281.5 144.5,281.5 139.5,281.5C 137.833,281.5 136.167,281.5 134.5,281.5C 129.5,281.5 124.5,281.5 119.5,281.5C 117.833,281.5 116.167,281.5 114.5,281.5C 109.5,281.5 104.5,281.5 99.5,281.5C 97.8333,281.5 96.1667,281.5 94.5,281.5C 93.5084,281.672 92.8417,281.338 92.5,280.5C 202.207,280.829 311.874,280.496 421.5,279.5 Z"/></g>
<g><path style="opacity:0.022" fill="#43443f" d="M 94.5,281.5 C 96.1667,281.5 97.8333,281.5 99.5,281.5C 66.5,315.167 33.1667,348.5 -0.5,381.5C -0.5,379.833 -0.5,378.167 -0.5,376.5C 31.5,345.167 63.1667,313.5 94.5,281.5 Z"/></g>
<g><path style="opacity:0.022" fill="#43443f" d="M 114.5,281.5 C 116.167,281.5 117.833,281.5 119.5,281.5C 79.8333,321.833 39.8333,361.833 -0.5,401.5C -0.5,399.833 -0.5,398.167 -0.5,396.5C 38.1667,358.5 76.5,320.167 114.5,281.5 Z"/></g>
<g><path style="opacity:0.022" fill="#43443f" d="M 134.5,281.5 C 136.167,281.5 137.833,281.5 139.5,281.5C 93.1667,328.5 46.5,375.167 -0.5,421.5C -0.5,419.833 -0.5,418.167 -0.5,416.5C 44.8333,371.833 89.8333,326.833 134.5,281.5 Z"/></g>
<g><path style="opacity:0.022" fill="#43443f" d="M 154.5,281.5 C 156.167,281.5 157.833,281.5 159.5,281.5C 135.5,305.833 111.5,330.167 87.5,354.5C 86.8333,354.5 86.5,354.833 86.5,355.5C 85.8333,355.5 85.5,355.833 85.5,356.5C 84.8333,356.5 84.5,356.833 84.5,357.5C 83.8333,357.5 83.5,357.833 83.5,358.5C 55.5,386.167 27.5,413.833 -0.5,441.5C -0.5,439.833 -0.5,438.167 -0.5,436.5C 51.5,385.167 103.167,333.5 154.5,281.5 Z"/></g>
<g><path style="opacity:0.022" fill="#43443f" d="M 174.5,281.5 C 176.167,281.5 177.833,281.5 179.5,281.5C 156.167,305.167 132.833,328.833 109.5,352.5C 107.833,352.5 106.167,352.5 104.5,352.5C 127.833,328.833 151.167,305.167 174.5,281.5 Z"/></g>
<g><path style="opacity:0.022" fill="#43443f" d="M 194.5,281.5 C 196.167,281.5 197.833,281.5 199.5,281.5C 176.167,305.167 152.833,328.833 129.5,352.5C 127.833,352.5 126.167,352.5 124.5,352.5C 147.833,328.833 171.167,305.167 194.5,281.5 Z"/></g>
<g><path style="opacity:0.022" fill="#43443f" d="M 214.5,281.5 C 216.167,281.5 217.833,281.5 219.5,281.5C 196.167,305.167 172.833,328.833 149.5,352.5C 147.833,352.5 146.167,352.5 144.5,352.5C 167.833,328.833 191.167,305.167 214.5,281.5 Z"/></g>
<g><path style="opacity:0.022" fill="#43443f" d="M 234.5,281.5 C 236.167,281.5 237.833,281.5 239.5,281.5C 216.167,305.167 192.833,328.833 169.5,352.5C 167.833,352.5 166.167,352.5 164.5,352.5C 187.833,328.833 211.167,305.167 234.5,281.5 Z"/></g>
<g><path style="opacity:0.022" fill="#43443f" d="M 254.5,281.5 C 256.167,281.5 257.833,281.5 259.5,281.5C 236.167,305.167 212.833,328.833 189.5,352.5C 187.833,352.5 186.167,352.5 184.5,352.5C 207.833,328.833 231.167,305.167 254.5,281.5 Z"/></g>
<g><path style="opacity:0.022" fill="#43443f" d="M 274.5,281.5 C 276.167,281.5 277.833,281.5 279.5,281.5C 256.167,305.167 232.833,328.833 209.5,352.5C 207.833,352.5 206.167,352.5 204.5,352.5C 227.833,328.833 251.167,305.167 274.5,281.5 Z"/></g>
<g><path style="opacity:0.022" fill="#43443f" d="M 294.5,281.5 C 296.167,281.5 297.833,281.5 299.5,281.5C 276.167,305.167 252.833,328.833 229.5,352.5C 227.833,352.5 226.167,352.5 224.5,352.5C 247.833,328.833 271.167,305.167 294.5,281.5 Z"/></g>
<g><path style="opacity:0.022" fill="#43443f" d="M 314.5,281.5 C 316.167,281.5 317.833,281.5 319.5,281.5C 296.167,305.167 272.833,328.833 249.5,352.5C 247.833,352.5 246.167,352.5 244.5,352.5C 267.833,328.833 291.167,305.167 314.5,281.5 Z"/></g>
<g><path style="opacity:0.022" fill="#43443f" d="M 334.5,281.5 C 336.167,281.5 337.833,281.5 339.5,281.5C 316.167,305.167 292.833,328.833 269.5,352.5C 267.833,352.5 266.167,352.5 264.5,352.5C 287.833,328.833 311.167,305.167 334.5,281.5 Z"/></g>
<g><path style="opacity:0.022" fill="#43443f" d="M 354.5,281.5 C 356.167,281.5 357.833,281.5 359.5,281.5C 336.167,305.167 312.833,328.833 289.5,352.5C 287.833,352.5 286.167,352.5 284.5,352.5C 307.833,328.833 331.167,305.167 354.5,281.5 Z"/></g>
<g><path style="opacity:0.022" fill="#43443f" d="M 374.5,281.5 C 376.167,281.5 377.833,281.5 379.5,281.5C 356.167,305.167 332.833,328.833 309.5,352.5C 307.833,352.5 306.167,352.5 304.5,352.5C 327.833,328.833 351.167,305.167 374.5,281.5 Z"/></g>
<g><path style="opacity:0.022" fill="#43443f" d="M 394.5,281.5 C 396.167,281.5 397.833,281.5 399.5,281.5C 376.167,305.167 352.833,328.833 329.5,352.5C 327.833,352.5 326.167,352.5 324.5,352.5C 347.833,328.833 371.167,305.167 394.5,281.5 Z"/></g>
<g><path style="opacity:0.022" fill="#43443f" d="M 511.5,285.5 C 511.5,287.167 511.5,288.833 511.5,290.5C 484.5,317.167 457.5,343.833 430.5,370.5C 430.5,369.167 430.5,367.833 430.5,366.5C 457.167,339.167 484.167,312.167 511.5,285.5 Z"/></g>
<g><path style="opacity:0.022" fill="#40403d" d="M 511.5,305.5 C 511.5,307.167 511.5,308.833 511.5,310.5C 484.167,337.5 456.833,364.5 429.5,391.5C 429.5,383.167 429.5,374.833 429.5,366.5C 429.833,366.5 430.167,366.5 430.5,366.5C 430.5,367.833 430.5,369.167 430.5,370.5C 430.334,375.511 430.501,380.511 431,385.5C 457.701,358.632 484.535,331.965 511.5,305.5 Z"/></g>
<g><path style="opacity:0.022" fill="#43443f" d="M 511.5,325.5 C 511.5,327.167 511.5,328.833 511.5,330.5C 450.833,390.5 390.5,450.833 330.5,511.5C 328.833,511.5 327.167,511.5 325.5,511.5C 387.167,449.167 449.167,387.167 511.5,325.5 Z"/></g>
<g><path style="opacity:0.022" fill="#43443f" d="M 511.5,345.5 C 511.5,347.167 511.5,348.833 511.5,350.5C 457.5,403.833 403.833,457.5 350.5,511.5C 348.833,511.5 347.167,511.5 345.5,511.5C 400.5,455.833 455.833,400.5 511.5,345.5 Z"/></g>
<g><path style="opacity:1" fill="#3398fe" d="M 104.5,352.5 C 106.167,352.5 107.833,352.5 109.5,352.5C 114.5,352.5 119.5,352.5 124.5,352.5C 126.167,352.5 127.833,352.5 129.5,352.5C 134.5,352.5 139.5,352.5 144.5,352.5C 146.167,352.5 147.833,352.5 149.5,352.5C 154.5,352.5 159.5,352.5 164.5,352.5C 166.167,352.5 167.833,352.5 169.5,352.5C 174.5,352.5 179.5,352.5 184.5,352.5C 186.167,352.5 187.833,352.5 189.5,352.5C 194.5,352.5 199.5,352.5 204.5,352.5C 206.167,352.5 207.833,352.5 209.5,352.5C 214.5,352.5 219.5,352.5 224.5,352.5C 226.167,352.5 227.833,352.5 229.5,352.5C 234.5,352.5 239.5,352.5 244.5,352.5C 246.167,352.5 247.833,352.5 249.5,352.5C 254.5,352.5 259.5,352.5 264.5,352.5C 266.167,352.5 267.833,352.5 269.5,352.5C 274.5,352.5 279.5,352.5 284.5,352.5C 286.167,352.5 287.833,352.5 289.5,352.5C 294.5,352.5 299.5,352.5 304.5,352.5C 306.167,352.5 307.833,352.5 309.5,352.5C 314.5,352.5 319.5,352.5 324.5,352.5C 326.167,352.5 327.833,352.5 329.5,352.5C 334.5,352.5 339.5,352.5 344.5,352.5C 346.167,352.5 347.833,352.5 349.5,352.5C 354.5,352.5 359.5,352.5 364.5,352.5C 366.167,352.5 367.833,352.5 369.5,352.5C 374.5,352.5 379.5,352.5 384.5,352.5C 386.167,352.5 387.833,352.5 389.5,352.5C 394.5,352.5 399.5,352.5 404.5,352.5C 406.167,352.5 407.833,352.5 409.5,352.5C 413.817,352.083 417.817,352.75 421.5,354.5C 422.795,355.488 424.128,356.488 425.5,357.5C 428.165,359.835 429.498,362.835 429.5,366.5C 429.5,374.833 429.5,383.167 429.5,391.5C 428.58,398.084 424.914,402.084 418.5,403.5C 309.833,403.5 201.167,403.5 92.5,403.5C 89.197,402.849 86.5303,401.182 84.5,398.5C 83.4918,396.456 82.4918,394.456 81.5,392.5C 81.5,391.833 81.5,391.167 81.5,390.5C 81.5,382.5 81.5,374.5 81.5,366.5C 81.5838,363.673 82.2504,361.006 83.5,358.5C 84.1667,358.5 84.5,358.167 84.5,357.5C 85.1667,357.5 85.5,357.167 85.5,356.5C 86.1667,356.5 86.5,356.167 86.5,355.5C 87.1667,355.5 87.5,355.167 87.5,354.5C 92.98,352.717 98.6466,352.051 104.5,352.5 Z"/></g>
<g><path style="opacity:0.022" fill="#43443f" d="M 511.5,365.5 C 511.5,367.167 511.5,368.833 511.5,370.5C 464.167,417.167 417.167,464.167 370.5,511.5C 368.833,511.5 367.167,511.5 365.5,511.5C 413.833,462.5 462.5,413.833 511.5,365.5 Z"/></g>
<g><path style="opacity:0.022" fill="#40403c" d="M 81.5,366.5 C 81.5,374.5 81.5,382.5 81.5,390.5C 80.6805,387.695 80.1805,384.695 80,381.5C 53.2987,408.368 26.4653,435.035 -0.5,461.5C -0.5,459.833 -0.5,458.167 -0.5,456.5C 26.4653,430.035 53.2987,403.368 80,376.5C 80.1787,372.975 80.6787,369.641 81.5,366.5 Z"/></g>
<g><path style="opacity:0.022" fill="#43443f" d="M 511.5,385.5 C 511.5,387.167 511.5,388.833 511.5,390.5C 470.833,430.5 430.5,470.833 390.5,511.5C 388.833,511.5 387.167,511.5 385.5,511.5C 427.167,469.167 469.167,427.167 511.5,385.5 Z"/></g>
<g><path style="opacity:0.022" fill="#43433f" d="M 81.5,392.5 C 82.4918,394.456 83.4918,396.456 84.5,398.5C 83.7611,398.369 83.0944,398.536 82.5,399C 54.9653,426.702 27.2987,454.202 -0.5,481.5C -0.5,479.833 -0.5,478.167 -0.5,476.5C 26.7987,449.702 53.9653,422.702 81,395.5C 81.4828,394.552 81.6495,393.552 81.5,392.5 Z"/></g>
<g><path style="opacity:0.022" fill="#43443f" d="M 92.5,404.5 C 93.8333,404.5 95.1667,404.5 96.5,404.5C 64.5,437.167 32.1667,469.5 -0.5,501.5C -0.5,499.833 -0.5,498.167 -0.5,496.5C 30.5,465.833 61.5,435.167 92.5,404.5 Z"/></g>
<g><path style="opacity:0.022" fill="#32322f" d="M 92.5,404.5 C 92.5,404.167 92.5,403.833 92.5,403.5C 201.167,403.5 309.833,403.5 418.5,403.5C 418.158,404.338 417.492,404.672 416.5,404.5C 414.833,404.5 413.167,404.5 411.5,404.5C 406.5,404.5 401.5,404.5 396.5,404.5C 394.833,404.5 393.167,404.5 391.5,404.5C 386.5,404.5 381.5,404.5 376.5,404.5C 374.833,404.5 373.167,404.5 371.5,404.5C 366.5,404.5 361.5,404.5 356.5,404.5C 354.833,404.5 353.167,404.5 351.5,404.5C 346.5,404.5 341.5,404.5 336.5,404.5C 334.833,404.5 333.167,404.5 331.5,404.5C 326.5,404.5 321.5,404.5 316.5,404.5C 314.833,404.5 313.167,404.5 311.5,404.5C 306.5,404.5 301.5,404.5 296.5,404.5C 294.833,404.5 293.167,404.5 291.5,404.5C 286.5,404.5 281.5,404.5 276.5,404.5C 274.833,404.5 273.167,404.5 271.5,404.5C 266.5,404.5 261.5,404.5 256.5,404.5C 254.833,404.5 253.167,404.5 251.5,404.5C 246.5,404.5 241.5,404.5 236.5,404.5C 234.833,404.5 233.167,404.5 231.5,404.5C 226.5,404.5 221.5,404.5 216.5,404.5C 214.833,404.5 213.167,404.5 211.5,404.5C 206.5,404.5 201.5,404.5 196.5,404.5C 194.833,404.5 193.167,404.5 191.5,404.5C 186.5,404.5 181.5,404.5 176.5,404.5C 174.833,404.5 173.167,404.5 171.5,404.5C 166.5,404.5 161.5,404.5 156.5,404.5C 154.833,404.5 153.167,404.5 151.5,404.5C 146.5,404.5 141.5,404.5 136.5,404.5C 134.833,404.5 133.167,404.5 131.5,404.5C 126.489,404.334 121.489,404.501 116.5,405C 80.9652,440.368 45.6319,475.868 10.5,511.5C 8.83333,511.5 7.16667,511.5 5.5,511.5C 40.6319,475.868 75.9652,440.368 111.5,405C 106.511,404.501 101.511,404.334 96.5,404.5C 95.1667,404.5 93.8333,404.5 92.5,404.5 Z"/></g>
<g><path style="opacity:0.022" fill="#43443f" d="M 131.5,404.5 C 133.167,404.5 134.833,404.5 136.5,404.5C 101.167,440.167 65.8333,475.833 30.5,511.5C 28.8333,511.5 27.1667,511.5 25.5,511.5C 60.8333,475.833 96.1667,440.167 131.5,404.5 Z"/></g>
<g><path style="opacity:0.022" fill="#43443f" d="M 151.5,404.5 C 153.167,404.5 154.833,404.5 156.5,404.5C 121.167,440.167 85.8333,475.833 50.5,511.5C 48.8333,511.5 47.1667,511.5 45.5,511.5C 80.8333,475.833 116.167,440.167 151.5,404.5 Z"/></g>
<g><path style="opacity:0.022" fill="#43443f" d="M 171.5,404.5 C 173.167,404.5 174.833,404.5 176.5,404.5C 141.167,440.167 105.833,475.833 70.5,511.5C 68.8333,511.5 67.1667,511.5 65.5,511.5C 100.833,475.833 136.167,440.167 171.5,404.5 Z"/></g>
<g><path style="opacity:0.022" fill="#43443f" d="M 191.5,404.5 C 193.167,404.5 194.833,404.5 196.5,404.5C 161.167,440.167 125.833,475.833 90.5,511.5C 88.8333,511.5 87.1667,511.5 85.5,511.5C 120.833,475.833 156.167,440.167 191.5,404.5 Z"/></g>
<g><path style="opacity:0.022" fill="#43443f" d="M 211.5,404.5 C 213.167,404.5 214.833,404.5 216.5,404.5C 181.167,440.167 145.833,475.833 110.5,511.5C 108.833,511.5 107.167,511.5 105.5,511.5C 140.833,475.833 176.167,440.167 211.5,404.5 Z"/></g>
<g><path style="opacity:0.022" fill="#43443f" d="M 231.5,404.5 C 233.167,404.5 234.833,404.5 236.5,404.5C 201.167,440.167 165.833,475.833 130.5,511.5C 128.833,511.5 127.167,511.5 125.5,511.5C 160.833,475.833 196.167,440.167 231.5,404.5 Z"/></g>
<g><path style="opacity:0.022" fill="#43443f" d="M 251.5,404.5 C 253.167,404.5 254.833,404.5 256.5,404.5C 221.167,440.167 185.833,475.833 150.5,511.5C 148.833,511.5 147.167,511.5 145.5,511.5C 180.833,475.833 216.167,440.167 251.5,404.5 Z"/></g>
<g><path style="opacity:0.022" fill="#43443f" d="M 271.5,404.5 C 273.167,404.5 274.833,404.5 276.5,404.5C 241.167,440.167 205.833,475.833 170.5,511.5C 168.833,511.5 167.167,511.5 165.5,511.5C 200.833,475.833 236.167,440.167 271.5,404.5 Z"/></g>
<g><path style="opacity:0.022" fill="#43443f" d="M 291.5,404.5 C 293.167,404.5 294.833,404.5 296.5,404.5C 261.167,440.167 225.833,475.833 190.5,511.5C 188.833,511.5 187.167,511.5 185.5,511.5C 220.833,475.833 256.167,440.167 291.5,404.5 Z"/></g>
<g><path style="opacity:0.022" fill="#43443f" d="M 311.5,404.5 C 313.167,404.5 314.833,404.5 316.5,404.5C 281.167,440.167 245.833,475.833 210.5,511.5C 208.833,511.5 207.167,511.5 205.5,511.5C 240.833,475.833 276.167,440.167 311.5,404.5 Z"/></g>
<g><path style="opacity:0.022" fill="#43443f" d="M 331.5,404.5 C 333.167,404.5 334.833,404.5 336.5,404.5C 301.167,440.167 265.833,475.833 230.5,511.5C 228.833,511.5 227.167,511.5 225.5,511.5C 260.833,475.833 296.167,440.167 331.5,404.5 Z"/></g>
<g><path style="opacity:0.022" fill="#43443f" d="M 351.5,404.5 C 353.167,404.5 354.833,404.5 356.5,404.5C 321.167,440.167 285.833,475.833 250.5,511.5C 248.833,511.5 247.167,511.5 245.5,511.5C 280.833,475.833 316.167,440.167 351.5,404.5 Z"/></g>
<g><path style="opacity:0.022" fill="#43443f" d="M 371.5,404.5 C 373.167,404.5 374.833,404.5 376.5,404.5C 341.167,440.167 305.833,475.833 270.5,511.5C 268.833,511.5 267.167,511.5 265.5,511.5C 300.833,475.833 336.167,440.167 371.5,404.5 Z"/></g>
<g><path style="opacity:0.022" fill="#43443f" d="M 391.5,404.5 C 393.167,404.5 394.833,404.5 396.5,404.5C 361.167,440.167 325.833,475.833 290.5,511.5C 288.833,511.5 287.167,511.5 285.5,511.5C 320.833,475.833 356.167,440.167 391.5,404.5 Z"/></g>
<g><path style="opacity:0.022" fill="#43443f" d="M 411.5,404.5 C 413.167,404.5 414.833,404.5 416.5,404.5C 381.167,440.167 345.833,475.833 310.5,511.5C 308.833,511.5 307.167,511.5 305.5,511.5C 340.833,475.833 376.167,440.167 411.5,404.5 Z"/></g>
<g><path style="opacity:0.022" fill="#43443f" d="M 511.5,405.5 C 511.5,407.167 511.5,408.833 511.5,410.5C 477.5,443.833 443.833,477.5 410.5,511.5C 408.833,511.5 407.167,511.5 405.5,511.5C 440.5,475.833 475.833,440.5 511.5,405.5 Z"/></g>
<g><path style="opacity:0.022" fill="#43443f" d="M 511.5,425.5 C 511.5,427.167 511.5,428.833 511.5,430.5C 484.167,457.167 457.167,484.167 430.5,511.5C 428.833,511.5 427.167,511.5 425.5,511.5C 453.833,482.5 482.5,453.833 511.5,425.5 Z"/></g>
<g><path style="opacity:0.022" fill="#43443f" d="M 511.5,445.5 C 511.5,447.167 511.5,448.833 511.5,450.5C 490.833,470.5 470.5,490.833 450.5,511.5C 448.833,511.5 447.167,511.5 445.5,511.5C 467.167,489.167 489.167,467.167 511.5,445.5 Z"/></g>
<g><path style="opacity:0.022" fill="#43443f" d="M 511.5,465.5 C 511.5,467.167 511.5,468.833 511.5,470.5C 497.5,483.833 483.833,497.5 470.5,511.5C 468.833,511.5 467.167,511.5 465.5,511.5C 480.5,495.833 495.833,480.5 511.5,465.5 Z"/></g>
<g><path style="opacity:0.022" fill="#43443f" d="M 511.5,485.5 C 511.5,487.167 511.5,488.833 511.5,490.5C 504.167,497.167 497.167,504.167 490.5,511.5C 488.833,511.5 487.167,511.5 485.5,511.5C 493.833,502.5 502.5,493.833 511.5,485.5 Z"/></g>
<g><path style="opacity:0.022" fill="#43443f" d="M 511.5,505.5 C 511.5,507.167 511.5,508.833 511.5,510.5C 510.833,510.5 510.5,510.833 510.5,511.5C 508.833,511.5 507.167,511.5 505.5,511.5C 507.167,509.167 509.167,507.167 511.5,505.5 Z"/></g>
</svg>
